# xmcd
#
# Track frame offsets:
# 150
# 19484
# 36000
# 55104
# 74961
# 89105
# 107300
# 125783
# 126083
# 131877
# 156628
#
# Disc length: 2440 seconds
#
#
# Revision: 0
# Processed by: cddbd v1.5.1PL2 Copyright (c) Steve Scherf et al.
# Submitted via: FreeRIP 2.944 
#
DISCID=ad09860b
DTITLE=Blood, Sweat and Tears - Blood, Sweat and Tears Greatest Hits
DYEAR=1972
DGENRE=Jazz-Blues
TTITLE0=You've Made Me So Very Happy
TTITLE1=I Can't Quit Her
TTITLE2=Go Down Gamblin'
TTITLE3=Hi-De-Ho (That Old Sweet Roll)
TTITLE4=Sometimes In Winter
TTITLE5=And When I Die
TTITLE6=Spinning Wheel
TTITLE7=Lisa, Listen To Me
TTITLE8=I Love You More Than You'll Ever Know
TTITLE9=Lucretia MacEvil
TTITLE10=God Bless The Child
EXTD=
EXTT0=
EXTT1=
EXTT2=
EXTT3=
EXTT4=
EXTT5=
EXTT6=
EXTT7=
EXTT8=
EXTT9=
EXTT10=
PLAYORDER=
